<?xml version="1.0" encoding="utf-8"?><svg viewBox="0 0 844 844" xmlns="http://www.w3.org/2000/svg" xmlns:xlink="http://www.w3.org/1999/xlink"><style>:root>svg{display:none}:root>svg:target{display:block}</style><svg fill="none" viewBox="0 0 424 424" id="Group" xmlns="http://www.w3.org/2000/svg"><circle cx="212" cy="212" r="212" fill="var(--color-1, #000)" style="transition:fill var(--icon-duration, 0.3s) ease,stroke var(--icon-duration, 0.3s) ease"/><path d="m143 326 145.717-110.168c2.649-2.002 2.646-5.982-.005-7.981L143 98" stroke="var(--stroke-2, #000)" stroke-width="20" stroke-linecap="round" fill="var(--color-2, #000)" style="transition:fill var(--icon-duration, 0.3s) ease,stroke var(--icon-duration, 0.3s) ease"/></svg><svg fill="none" viewBox="0 0 820 820" id="facebook" xmlns="http://www.w3.org/2000/svg"><circle cx="410" cy="410" r="410" fill="var(--color-1, #000)" style="transition:fill var(--icon-duration, 0.3s) ease,stroke var(--icon-duration, 0.3s) ease"/><path d="M351.097 758c-24 0-40.8-4.267-50.4-12.8-9.067-8-13.6-21.067-13.6-39.2v-53.6a10983 10983 0 0 0 1.6-52c.533-18.667 1.333-41.067 2.4-67.2.533-13.867 1.067-30.933 1.6-51.2.533-20.267 1.6-46.133 3.2-77.6 2.133-32 5.6-71.733 10.4-119.2 2.667-25.6 6.4-48.533 11.2-68.8 5.333-20.8 11.733-38.933 19.2-54.4 7.467-15.467 16-28.533 25.6-39.2 10.667-11.733 25.333-21.6 44-29.6 19.2-8.533 42.667-12.8 70.4-12.8 15.467 0 31.467 2.133 48 6.4 17.067 3.733 33.067 9.333 48 16.8 14.933 7.467 26.667 16.533 35.2 27.2 6.933 8.533 10.4 17.333 10.4 26.4 0 7.467-2.4 15.733-7.2 24.8-4.267 8.533-9.867 16-16.8 22.4-6.933 5.867-14.4 8.8-22.4 8.8-8.533 0-18.933-4.533-31.2-13.6-10.133-7.467-19.733-13.067-28.8-16.8-8.533-4.267-17.067-6.4-25.6-6.4-6.933 0-13.6 2.133-20 6.4-5.867 4.267-11.467 13.067-16.8 26.4-4.8 12.8-8.533 32.533-11.2 59.2-3.2 34.667-5.867 64-8 88-1.6 23.467-2.933 43.733-4 60.8-.533 16.533-1.333 31.467-2.4 44.8-.533 12.8-1.067 26.133-1.6 40-1.067 29.333-1.867 54.667-2.4 76a30454.8 30454.8 0 0 1-1.6 61.6c0 19.733-.267 41.6-.8 65.6-.533 17.067-5.333 30.133-14.4 39.2-9.067 9.067-26.4 13.6-52 13.6Zm-119.2-345.6c-6.933 0-13.333-2.933-19.2-8.8-5.333-6.4-9.6-13.867-12.8-22.4-3.2-8.533-4.8-16.533-4.8-24 0-13.333 2.667-22.4 8-27.2 5.867-5.333 12-9.333 18.4-12 11.733-4.8 25.867-8.533 42.4-11.2 17.067-2.667 36.8-4.533 59.2-5.6 22.933-1.067 48.267-1.067 76 0 11.733 0 25.867.267 42.4.8h81.6c13.867 0 24.533 3.733 32 11.2 7.467 6.933 11.2 17.867 11.2 32.8 0 21.333-4.267 36.267-12.8 44.8-8 8-17.6 12-28.8 12h-25.6c-11.2-.533-22.667-.8-34.4-.8-11.2-.533-19.733-.8-25.6-.8-16.533 0-35.2.267-56 .8a2313.01 2313.01 0 0 0-60.8 2.4c-19.733 1.067-37.333 2.4-52.8 4-3.733.533-9.867 1.333-18.4 2.4-8.533 1.067-14.933 1.6-19.2 1.6Z" fill="var(--color-2, #000)" style="transition:fill var(--icon-duration, 0.3s) ease,stroke var(--icon-duration, 0.3s) ease"/></svg><svg fill="none" viewBox="0 0 255 414" id="left-arrow" xmlns="http://www.w3.org/2000/svg"><path d="m219.212 379-170-169.707L219.212 35" stroke="var(--stroke-1, #000)" stroke-width="70" stroke-linecap="round" fill="var(--color-1, #000)" style="transition:fill var(--icon-duration, 0.3s) ease,stroke var(--icon-duration, 0.3s) ease"/></svg><svg viewBox="262.8 248.4 370.8 379.8" style="max-height:500px" id="logo-initial" xmlns="http://www.w3.org/2000/svg"><path d="M460.7 272.5c8.6 3.9 16.3 10.9 19.3 17.2 3.5 7.5 4.1 14.3 3 34.9-.5 10.4-.7 31.4-.3 46.7l.6 27.7 2.3.6c2.6.7 3.2.1 18.2-17.6 5.3-6.3 11.2-12.9 13.1-14.7 3.6-3.4 8.4-4.9 12.3-3.9 2.4.6 19.1 11.3 19.6 12.5.3.8-2.9 3.9-36.1 34.5-13.6 12.6-24.6 23.2-24.5 23.6.2.4 14.1 14 31 30.1 16.9 16.2 30.8 29.8 30.8 30.4 0 1.1-1.8 1.7-10.5 3.5-5.4 1.1-6.6 1.9-12.2 7.6l-6.2 6.3-17.7-19.2c-9.8-10.6-18.4-19.9-19.1-20.7-1.2-1.3-1.4 2.7-1.2 27 .2 27.1.1 28.7-1.8 32.5-1.2 2.2-3.2 5-4.5 6.3-2 1.8-21 12.2-22.4 12.2-.2 0-.4-55.4-.4-123 0-121.7 0-123-2-125-2.4-2.4-3.9-2.5-8.4-.6-1.8.8-21.3 11.7-43.2 24.4-22 12.6-42.6 24.4-45.9 26.2-19.9 10.9-23.6 13.9-25.4 20.8-.5 2.1-.9 29-.9 63v59.3l3.2 4.7c2.7 4.1 17 16.1 20.7 17.4.8.3 1.1.9.7 1.3-1.2 1.3-15.6-1.9-24.2-5.4-15.6-6.2-27.2-16.1-29.7-25.3-.7-2.8-.7-8.6.2-20.1.8-11.3 1-30.5.5-63.4-.8-51.6-.8-51.1 5-56.4 1.6-1.5 17.8-11.1 35.9-21.4 37.3-21.3 77.4-44.6 88.3-51.2 13.2-8.2 19-8.7 31.9-2.8" fill="var(--color-1, #000)" style="transition:fill var(--icon-duration, 0.3s) ease,stroke var(--icon-duration, 0.3s) ease"/><path fill-rule="evenodd" d="M438.9 445c.2 89.8.5 119.3 1.4 122 1.2 3.3 1.5 3.5 5.4 3.4 3.5-.1 7.6-2 23-10.9 10.3-6 34.8-20 54.3-31.2 19.5-11.3 36.5-21.3 37.7-22.5 1.2-1.1 2.6-3.2 3.2-4.7.8-1.8 1.1-21.9.9-67.5l-.3-64.8-4.2-3.7c-2.2-2-7.8-5.5-12.2-7.7-4.4-2.1-8.1-4.3-8.1-4.8 0-2.9 31.1 3.2 42.2 8.2 5.5 2.5 11.7 7.3 11.9 9.1.6 5.7.2 143.6-.4 145.9-.5 1.9-2.3 4.9-4 6.7-1.8 1.8-21.5 13.7-44.2 26.5-22.5 12.9-52.5 30.1-66.5 38.3-29.5 17.4-30.9 17.8-42 13.3-12.9-5.2-20.7-12.5-24.7-22.8-1.5-3.8-1.6-10.9-1.4-65.5l.3-61.2-2.3-.6c-1.3-.3-9.8-.4-18.9-.3l-16.5.3-.3 29.4-.2 29.3-3.7-.7c-7.5-1.4-14.8-4.8-19-8.9-7.3-7.4-7.4-7.8-7.1-67.2.3-57.8.1-55.7 7.3-60.5 2.2-1.5 15.5-9.3 29.5-17.5 14-8.1 32.7-19 41.5-24.1l16-9.3.6 2.8c.4 1.5.7 56 .8 121.2m-39.8-67.9c-22.4 9.6-28.2 16.8-26.6 32.8 1.1 11.1-.8 10.1 19.1 10.1H409l.2-17.3c.1-9.4.2-19.8.2-23 .1-3.3-.1-6-.4-6.2-.4-.2-4.8 1.4-9.9 3.6" fill="var(--color-2, #000)" style="transition:fill var(--icon-duration, 0.3s) ease,stroke var(--icon-duration, 0.3s) ease"/></svg><svg fill="none" viewBox="0 0 23 23" id="moon-icon" xmlns="http://www.w3.org/2000/svg"><path fill="var(--color-1, #000)" d="M22.448 15.406c.255-.607-.474-1.125-1.085-.855a9.6 9.6 0 0 1-3.877.81c-5.231 0-9.471-4.155-9.471-9.28a9.1 9.1 0 0 1 1.417-4.888c.355-.56-.07-1.335-.72-1.17C3.7 1.3 0 5.766 0 11.078 0 17.386 5.219 22.5 11.658 22.5c4.874 0 9.05-2.931 10.79-7.094" style="transition:fill var(--icon-duration, 0.3s) ease,stroke var(--icon-duration, 0.3s) ease"/><path fill="var(--color-2, #000)" d="M15.764.129c-.663-.443-1.453.347-1.012 1.01l.788 1.181a2.915 2.915 0 0 1 0 3.235l-.788 1.181c-.44.663.35 1.453 1.013 1.01l1.18-.787a2.915 2.915 0 0 1 3.235 0l1.181.787c.663.443 1.453-.347 1.01-1.01l-.787-1.18a2.915 2.915 0 0 1 0-3.236l.787-1.181c.443-.663-.347-1.453-1.011-1.01l-1.18.787a2.915 2.915 0 0 1-3.235 0z" style="transition:fill var(--icon-duration, 0.3s) ease,stroke var(--icon-duration, 0.3s) ease"/></svg><svg fill="none" viewBox="0 0 255 414" id="right-arrow" xmlns="http://www.w3.org/2000/svg"><path d="m35 379 170-169.707L35 35" stroke="var(--stroke-1, #000)" stroke-width="70" stroke-linecap="round" fill="var(--color-1, #000)" style="transition:fill var(--icon-duration, 0.3s) ease,stroke var(--icon-duration, 0.3s) ease"/></svg><svg fill="none" viewBox="0 0 16 18" id="sun-icon" xmlns="http://www.w3.org/2000/svg"><path stroke="var(--stroke-1, #000)" stroke-linecap="round" stroke-linejoin="round" stroke-width="1.5" d="M7.678.75v1m0 14v1M.75 4.75l.866.5m12.125 7 .866.5m0-8-.866.5m-12.125 7-.866.5m10.928-4a4 4 0 1 0-8 0 4 4 0 0 0 8 0" fill="var(--color-1, #000)" style="transition:fill var(--icon-duration, 0.3s) ease,stroke var(--icon-duration, 0.3s) ease"/></svg><svg fill="none" viewBox="0 0 844 844" id="telegramm" xmlns="http://www.w3.org/2000/svg"><circle cx="422" cy="422" r="422" fill="var(--color-1, #000)" style="transition:fill var(--icon-duration, 0.3s) ease,stroke var(--icon-duration, 0.3s) ease"/><path d="m727.491 241.449-466.06 264.625L29 444.098l698.491-202.649Zm-.351 3.125L598.831 608.03l-303.66-90.818L727.14 244.574ZM297.586 520.766l139.106 40.998-82.476 93.388-56.63-134.386Z" fill="var(--color-2, #000)" style="transition:fill var(--icon-duration, 0.3s) ease,stroke var(--icon-duration, 0.3s) ease"/></svg><svg fill="none" viewBox="0 0 700 700" id="vk-icon" xmlns="http://www.w3.org/2000/svg"><circle cx="350" cy="350" r="350" fill="var(--color-1, #000)" style="transition:fill var(--icon-duration, 0.3s) ease,stroke var(--icon-duration, 0.3s) ease"/><path d="M51 214.751c2.618 8.116 4.81 21.762 7.582 30.331 10.774 33.304 26.678 64.475 46.066 94.178 20.491 31.391 44.443 60.319 72.223 86.499 30.2 28.461 63.99 52.308 103.9 68.041 18.498 7.292 37.772 11.966 57.978 13.084 21.624 1.197 39.273-6.605 54.774-19.836 8.405-7.173 16.841-14.354 25.736-20.989 10.144-7.567 18.005-7.971 28.776-1.212 11.981 7.517 23.36 15.848 35.12 23.673 15.462 10.29 33.105 14.649 51.827 16.298 19.835 1.747 39.558 1.854 59.097-2.193 4.44-.919 8.874-2.155 13.058-3.797 21.594-8.473 28.301-26.863 17.106-46.713-8.872-15.734-21.831-28.408-35.891-40.165a465.898 465.898 0 0 0-51.246-37.236c-3.952-2.481-4.43-4.308-1.273-7.862 29.955-33.725 76.774-109.534 100.872-147.075-3.447-6.573-9.906-8.685-17.721-9.896-39.223-6.076-78.647-4.396-118.067-3.172-6.4.199-10.902 2.973-13.706 8.703-14.789 30.231-31.013 59.77-50.547 87.669-2.702 3.859-5.398 7.694-9.25 10.691-7.258 5.649-16.133 4.61-24.54 4.607-4.081-.002-5.868-3.363-5.783-7.258.173-7.937-.188-15.902.401-23.81 1.365-18.335.779-36.68.631-55.014-.076-9.303-1.447-18.603-3.588-27.738-1.606-6.853-9.398-11.564-17.091-11.113-11.039.646-22.089.074-33.144-.122-22.1-.392-44.201-.681-66.322.702-15.744.985-19.037 12.173-16.885 21.646 3.558 15.663 7.98 31.166 11.211 46.882 3.223 15.678 2.638 31.56.602 47.378-.089.69-.423 1.351-.628 2.03-2.355 7.788-6.375 8.993-13.039 3.599-7.504-6.075-13.596-13.337-19.316-20.847-13.326-17.497-23.425-36.748-34.881-55.259-6.174-9.977-12.89-19.58-20.637-28.56-3.744-4.341-8.615-6.726-14.67-7.229-20.55-1.709-41.129-1.877-61.72-1.038-15.042.612-29.95 2.479-44.816 4.611-5.17.742-9.387 2.826-12.199 7.512Z" fill="var(--color-2, #000)" style="transition:fill var(--icon-duration, 0.3s) ease,stroke var(--icon-duration, 0.3s) ease"/></svg></svg>