<svg width="820" height="820" viewBox="0 0 820 820" fill="none" xmlns="http://www.w3.org/2000/svg">
<circle cx="410" cy="410" r="410" fill="black"/>
<path d="M351.097 758C327.097 758 310.297 753.733 300.697 745.2C291.63 737.2 287.097 724.133 287.097 706C287.097 686.267 287.097 668.4 287.097 652.4C287.63 636.4 288.164 619.067 288.697 600.4C289.23 581.733 290.03 559.333 291.097 533.2C291.63 519.333 292.164 502.267 292.697 482C293.23 461.733 294.297 435.867 295.897 404.4C298.03 372.4 301.497 332.667 306.297 285.2C308.964 259.6 312.697 236.667 317.497 216.4C322.83 195.6 329.23 177.467 336.697 162C344.164 146.533 352.697 133.467 362.297 122.8C372.964 111.067 387.63 101.2 406.297 93.2C425.497 84.6666 448.964 80.4 476.697 80.4C492.164 80.4 508.164 82.5333 524.697 86.7999C541.764 90.5333 557.764 96.1333 572.697 103.6C587.63 111.067 599.364 120.133 607.897 130.8C614.83 139.333 618.297 148.133 618.297 157.2C618.297 164.667 615.897 172.933 611.097 182C606.83 190.533 601.23 198 594.297 204.4C587.364 210.267 579.897 213.2 571.897 213.2C563.364 213.2 552.964 208.667 540.697 199.6C530.564 192.133 520.964 186.533 511.897 182.8C503.364 178.533 494.83 176.4 486.297 176.4C479.364 176.4 472.697 178.533 466.297 182.8C460.43 187.067 454.83 195.867 449.497 209.2C444.697 222 440.964 241.733 438.297 268.4C435.097 303.067 432.43 332.4 430.297 356.4C428.697 379.867 427.364 400.133 426.297 417.2C425.764 433.733 424.964 448.667 423.897 462C423.364 474.8 422.83 488.133 422.297 502C421.23 531.333 420.43 556.667 419.897 578C419.364 599.333 418.83 619.867 418.297 639.6C418.297 659.333 418.03 681.2 417.497 705.2C416.964 722.267 412.164 735.333 403.097 744.4C394.03 753.467 376.697 758 351.097 758ZM231.897 412.4C224.964 412.4 218.564 409.467 212.697 403.6C207.364 397.2 203.097 389.733 199.897 381.2C196.697 372.667 195.097 364.667 195.097 357.2C195.097 343.867 197.764 334.8 203.097 330C208.964 324.667 215.097 320.667 221.497 318C233.23 313.2 247.364 309.467 263.897 306.8C280.964 304.133 300.697 302.267 323.097 301.2C346.03 300.133 371.364 300.133 399.097 301.2C410.83 301.2 424.964 301.467 441.497 302C458.03 302 473.764 302 488.697 302C504.164 302 515.63 302 523.097 302C536.964 302 547.63 305.733 555.097 313.2C562.564 320.133 566.297 331.067 566.297 346C566.297 367.333 562.03 382.267 553.497 390.8C545.497 398.8 535.897 402.8 524.697 402.8C519.364 402.8 510.83 402.8 499.097 402.8C487.897 402.267 476.43 402 464.697 402C453.497 401.467 444.964 401.2 439.097 401.2C422.564 401.2 403.897 401.467 383.097 402C362.83 402.533 342.564 403.333 322.297 404.4C302.564 405.467 284.964 406.8 269.497 408.4C265.764 408.933 259.63 409.733 251.097 410.8C242.564 411.867 236.164 412.4 231.897 412.4Z" fill="white"/>
</svg>
