<svg viewBox="262.8 248.40000000000003 370.79999999999995 379.8" xmlns="http://www.w3.org/2000/svg" style="max-height: 500px" width="370.79999999999995" height="379.8">
  <path d="M460.7 272.5c8.6 3.9 16.3 10.9 19.3 17.2 3.5 7.5 4.1 14.3 3 34.9-.5 10.4-.7 31.4-.3 46.7l.6 27.7 2.3.6c2.6.7 3.2.1 18.2-17.6 5.3-6.3 11.2-12.9 13.1-14.7 3.6-3.4 8.4-4.9 12.3-3.9 2.4.6 19.1 11.3 19.6 12.5.3.8-2.9 3.9-36.1 34.5-13.6 12.6-24.6 23.2-24.5 23.6.2.4 14.1 14 31 30.1 16.9 16.2 30.8 29.8 30.8 30.4 0 1.1-1.8 1.7-10.5 3.5-5.4 1.1-6.6 1.9-12.2 7.6l-6.2 6.3-17.7-19.2c-9.8-10.6-18.4-19.9-19.1-20.7-1.2-1.3-1.4 2.7-1.2 27 .2 27.1.1 28.7-1.8 32.5-1.2 2.2-3.2 5-4.5 6.3-2 1.8-21 12.2-22.4 12.2-.2 0-.4-55.4-.4-123 0-121.7 0-123-2-125-2.4-2.4-3.9-2.5-8.4-.6-1.8.8-21.3 11.7-43.2 24.4-22 12.6-42.6 24.4-45.9 26.2-19.9 10.9-23.6 13.9-25.4 20.8-.5 2.1-.9 29-.9 63v59.3l3.2 4.7c2.7 4.1 17 16.1 20.7 17.4.8.3 1.1.9.7 1.3-1.2 1.3-15.6-1.9-24.2-5.4-15.6-6.2-27.2-16.1-29.7-25.3-.7-2.8-.7-8.6.2-20.1.8-11.3 1-30.5.5-63.4-.8-51.6-.8-51.1 5-56.4 1.6-1.5 17.8-11.1 35.9-21.4 37.3-21.3 77.4-44.6 88.3-51.2 13.2-8.2 19-8.7 31.9-2.8"/>
  
  <path fill-rule="evenodd" d="M438.9 445c.2 89.8.5 119.3 1.4 122 1.2 3.3 1.5 3.5 5.4 3.4 3.5-.1 7.6-2 23-10.9 10.3-6 34.8-20 54.3-31.2 19.5-11.3 36.5-21.3 37.7-22.5 1.2-1.1 2.6-3.2 3.2-4.7.8-1.8 1.1-21.9.9-67.5l-.3-64.8-4.2-3.7c-2.2-2-7.8-5.5-12.2-7.7-4.4-2.1-8.1-4.3-8.1-4.8 0-2.9 31.1 3.2 42.2 8.2 5.5 2.5 11.7 7.3 11.9 9.1.6 5.7.2 143.6-.4 145.9-.5 1.9-2.3 4.9-4 6.7-1.8 1.8-21.5 13.7-44.2 26.5-22.5 12.9-52.5 30.1-66.5 38.3-29.5 17.4-30.9 17.8-42 13.3-12.9-5.2-20.7-12.5-24.7-22.8-1.5-3.8-1.6-10.9-1.4-65.5l.3-61.2-2.3-.6c-1.3-.3-9.8-.4-18.9-.3l-16.5.3-.3 29.4-.2 29.3-3.7-.7c-7.5-1.4-14.8-4.8-19-8.9-7.3-7.4-7.4-7.8-7.1-67.2.3-57.8.1-55.7 7.3-60.5 2.2-1.5 15.5-9.3 29.5-17.5 14-8.1 32.7-19 41.5-24.1l16-9.3.6 2.8c.4 1.5.7 56 .8 121.2 M399.1 377.1c-22.4 9.6-28.2 16.8-26.6 32.8 1.1 11.1-.8 10.1 19.1 10.1H409l.2-17.3c.1-9.4.2-19.8.2-23 .1-3.3-.1-6-.4-6.2-.4-.2-4.8 1.4-9.9 3.6"/>
</svg>