<svg width="700" height="700" viewBox="0 0 700 700" fill="none" xmlns="http://www.w3.org/2000/svg">
<circle cx="350" cy="350" r="350" fill="black"/>
<path d="M51 214.751C53.6178 222.867 55.8096 236.513 58.5818 245.082C69.3558 278.386 85.26 309.557 104.648 339.26C125.139 370.651 149.091 399.579 176.871 425.759C207.071 454.22 240.861 478.067 280.771 493.8C299.269 501.092 318.543 505.766 338.749 506.884C360.373 508.081 378.022 500.279 393.523 487.048C401.928 479.875 410.364 472.694 419.259 466.059C429.403 458.492 437.264 458.088 448.035 464.847C460.016 472.364 471.395 480.695 483.155 488.52C498.617 498.81 516.26 503.169 534.982 504.818C554.817 506.565 574.54 506.672 594.079 502.625C598.519 501.706 602.953 500.47 607.137 498.828C628.731 490.355 635.438 471.965 624.243 452.115C615.371 436.381 602.412 423.707 588.352 411.95C572.207 398.449 555.117 386.018 537.106 374.714C533.154 372.233 532.676 370.406 535.833 366.852C565.788 333.127 612.607 257.318 636.705 219.777C633.258 213.204 626.799 211.092 618.984 209.881C579.761 203.805 540.337 205.485 500.917 206.709C494.517 206.908 490.015 209.682 487.211 215.412C472.422 245.643 456.198 275.182 436.664 303.081C433.962 306.94 431.266 310.775 427.414 313.772C420.156 319.421 411.281 318.382 402.874 318.379C398.793 318.377 397.006 315.016 397.091 311.121C397.264 303.184 396.903 295.219 397.492 287.311C398.857 268.976 398.271 250.631 398.123 232.297C398.047 222.994 396.676 213.694 394.535 204.559C392.929 197.706 385.137 192.995 377.444 193.446C366.405 194.092 355.355 193.52 344.3 193.324C322.2 192.932 300.099 192.643 277.978 194.026C262.234 195.011 258.941 206.199 261.093 215.672C264.651 231.335 269.073 246.838 272.304 262.554C275.527 278.232 274.942 294.114 272.906 309.932C272.817 310.622 272.483 311.283 272.278 311.962C269.923 319.75 265.903 320.955 259.239 315.561C251.735 309.486 245.643 302.224 239.923 294.714C226.597 277.217 216.498 257.966 205.042 239.455C198.868 229.478 192.152 219.875 184.405 210.895C180.661 206.554 175.79 204.169 169.735 203.666C149.185 201.957 128.606 201.789 108.015 202.628C92.9733 203.24 78.0658 205.107 63.1986 207.239C58.0292 207.981 53.8115 210.065 51 214.751Z" fill="#D9D9D9"/>
</svg>
